<svg width="20" height="20" viewBox="0 0 20 20" fill="none" xmlns="http://www.w3.org/2000/svg">
<path fill-rule="evenodd" clip-rule="evenodd" d="M7.75048 3.9902C7.92003 3.82064 8.14999 3.72539 8.38978 3.72539H11.398C11.6378 3.72539 11.8678 3.82064 12.0373 3.9902C12.2069 4.15975 12.3021 4.38972 12.3021 4.6295V5.53362H7.48567V4.6295C7.48567 4.38972 7.58092 4.15975 7.75048 3.9902ZM13.5021 4.6295V5.53362H15.1583C15.1607 5.53362 15.163 5.53363 15.1654 5.53366H16.6624C16.9938 5.53366 17.2624 5.80229 17.2624 6.13366C17.2624 6.46503 16.9938 6.73366 16.6624 6.73366H15.7139L15.0061 15.9353C14.9996 16.4843 14.7787 17.0095 14.3899 17.3982C13.9953 17.7928 13.4602 18.0145 12.9021 18.0145H6.88567C6.32762 18.0145 5.79243 17.7928 5.39784 17.3982C5.00913 17.0095 4.78821 16.4843 4.7817 15.9353L4.07388 6.73366H3.12539C2.79402 6.73366 2.52539 6.46503 2.52539 6.13366C2.52539 5.80229 2.79402 5.53366 3.12539 5.53366H4.6224C4.62476 5.53363 4.62713 5.53362 4.6295 5.53362H6.28567V4.6295C6.28567 4.07146 6.50735 3.53627 6.90195 3.14167C7.29655 2.74707 7.83173 2.52539 8.38978 2.52539H11.398C11.956 2.52539 12.4912 2.74707 12.8858 3.14167C13.2804 3.53627 13.5021 4.07146 13.5021 4.6295ZM5.27743 6.73366L5.97979 15.8643C5.98097 15.8796 5.98156 15.895 5.98156 15.9103C5.98156 16.1501 6.07681 16.3801 6.24636 16.5497C6.41592 16.7192 6.64588 16.8145 6.88567 16.8145H12.9021C13.1419 16.8145 13.3719 16.7192 13.5414 16.5497C13.711 16.3801 13.8062 16.1501 13.8062 15.9103C13.8062 15.895 13.8068 15.8796 13.808 15.8643L14.5104 6.73366H5.27743Z" fill="#484964"/>
</svg>
