<svg width="32" height="32" viewBox="0 0 32 32" fill="none" xmlns="http://www.w3.org/2000/svg">
<path d="M22.0015 16.001C22.0065 19.9109 21.2449 23.7838 19.7598 27.4007" stroke="white" stroke-width="2" stroke-linecap="round" stroke-linejoin="round"/>
<path d="M20.4733 12.0006C19.6631 11.095 18.5971 10.4567 17.4163 10.1702C16.2354 9.88365 14.9954 9.96241 13.8603 10.396C12.7252 10.8297 11.7485 11.5977 11.0594 12.5985C10.3704 13.5994 10.0014 14.7859 10.0014 16.001C10.0061 19.0504 9.23256 22.0506 7.75391 24.7175" stroke="white" stroke-width="2" stroke-linecap="round" stroke-linejoin="round"/>
<path d="M12 4.68383C13.8103 4.0458 15.7471 3.85101 17.6481 4.11577C19.5492 4.38054 21.3591 5.09715 22.9261 6.20554C24.4932 7.31393 25.7717 8.7818 26.6545 10.4861C27.5373 12.1905 27.9987 14.0816 28.0001 16.001C28.0017 18.6925 27.7025 21.3758 27.108 24.0009" stroke="white" stroke-width="2" stroke-linecap="round" stroke-linejoin="round"/>
<path d="M2.91211 21.001C3.6314 19.4324 4.0026 17.7267 4.0002 16.001C3.99829 14.3124 4.3537 12.6424 5.04309 11.1008C5.73248 9.55927 6.74024 8.18103 8.00016 7.05664" stroke="white" stroke-width="2" stroke-linecap="round" stroke-linejoin="round"/>
<path d="M13.8226 26.001C13.5691 26.5533 13.2955 27.0941 13.002 27.6233" stroke="white" stroke-width="2" stroke-linecap="round" stroke-linejoin="round"/>
<path d="M15.9983 16.001C15.9998 18.0248 15.7457 20.0408 15.2422 22.001" stroke="white" stroke-width="2" stroke-linecap="round" stroke-linejoin="round"/>
</svg>
