<svg width="32" height="32" viewBox="0 0 32 32" fill="none" xmlns="http://www.w3.org/2000/svg">
<path d="M15.9088 3C9.30695 3 9.71862 5.87733 9.71862 5.87733L9.7262 8.85867H16.0247V9.7535H7.22695C7.22695 9.7535 3.00195 9.27142 3.00195 15.9664C3.00195 22.6614 6.68854 22.4231 6.68854 22.4231H8.8877V19.3172C8.8877 19.3172 8.76962 15.6122 12.5169 15.6122H18.7634C18.7634 15.6122 22.2734 15.6685 22.2734 12.2018V6.46883C22.2734 6.46883 22.8053 3 15.9077 3H15.9088ZM12.4356 5.00417C13.0618 5.00417 13.5688 5.51333 13.5688 6.14383C13.5688 6.77325 13.0618 7.28242 12.4356 7.28242C11.8084 7.28242 11.3025 6.77325 11.3025 6.14383C11.3025 5.51333 11.8084 5.00417 12.4356 5.00417Z" fill="white"/>
<path d="M16.1046 29.0003C22.7043 29.0003 22.2926 26.123 22.2926 26.123L22.285 23.1416H15.9865V22.2468H24.7864C24.7864 22.2468 29.0114 22.7289 29.0114 16.0339C29.0114 9.33889 25.3237 9.57722 25.3237 9.57722H23.1246V12.6831C23.1246 12.6831 23.2427 16.3881 19.4954 16.3881H13.25C13.25 16.3881 9.74002 16.3318 9.74002 19.7985V25.5315C9.74002 25.5315 9.20702 29.0003 16.1046 29.0003ZM19.5778 26.9961C18.9505 26.9961 18.4446 26.487 18.4446 25.8565C18.4446 25.227 18.9505 24.7179 19.5778 24.7179C20.2039 24.7179 20.7109 25.227 20.7109 25.8565C20.7109 26.487 20.2039 26.9961 19.5778 26.9961Z" fill="white"/>
</svg>
