<svg width="32" height="32" viewBox="0 0 32 32" fill="none" xmlns="http://www.w3.org/2000/svg">
<path d="M26.2526 26.2528C28.4005 24.1049 25.5512 17.7732 19.8886 12.1106C14.226 6.44801 7.89439 3.59877 5.74651 5.74665C3.59863 7.89454 6.44787 14.2262 12.1105 19.8888C17.7731 25.5514 24.1047 28.4006 26.2526 26.2528Z" stroke="white" stroke-width="2" stroke-linecap="round" stroke-linejoin="round"/>
<path d="M19.8886 19.8894C25.5512 14.2268 28.4005 7.89513 26.2526 5.74725C24.1047 3.59937 17.7731 6.44861 12.1105 12.1112C6.44787 17.7738 3.59863 24.1055 5.74651 26.2533C7.89439 28.4012 14.226 25.552 19.8886 19.8894Z" stroke="white" stroke-width="2" stroke-linecap="round" stroke-linejoin="round"/>
<path d="M16 17.5C16.8284 17.5 17.5 16.8284 17.5 16C17.5 15.1716 16.8284 14.5 16 14.5C15.1716 14.5 14.5 15.1716 14.5 16C14.5 16.8284 15.1716 17.5 16 17.5Z" fill="white"/>
</svg>
