<svg width="32" height="32" viewBox="0 0 32 32" fill="none" xmlns="http://www.w3.org/2000/svg">
<path d="M7.43268 2.76511C7.60244 2.84673 7.74569 2.97464 7.84594 3.1341C7.94619 3.29356 7.99937 3.47809 7.99935 3.66644C7.99935 4.77311 8.41535 5.41044 8.93668 6.18644L8.97535 6.24244C9.41802 6.90111 9.99935 7.76378 9.99935 8.99978C9.99935 10.2611 9.36335 11.3731 8.39402 12.0331C8.64868 12.2464 8.87402 12.5091 9.06868 12.8238C9.70335 13.8504 9.99935 15.4198 9.99935 17.6731C9.99935 19.9558 9.69268 22.6971 9.19268 24.8864C8.94468 25.9744 8.63668 26.9784 8.27002 27.7318C8.08735 28.1064 7.86468 28.4718 7.59002 28.7584C7.31535 29.0398 6.89268 29.3398 6.33268 29.3398C5.77268 29.3398 5.35002 29.0398 5.07668 28.7584C4.7983 28.4534 4.5689 28.1071 4.39668 27.7318C4.02868 26.9771 3.72068 25.9744 3.47268 24.8851C2.95261 22.5154 2.68225 20.0978 2.66602 17.6718C2.66602 15.4184 2.96202 13.8504 3.59668 12.8238C3.77775 12.5258 4.00554 12.2588 4.27135 12.0331C3.77638 11.6971 3.37127 11.2449 3.09142 10.7161C2.81157 10.1873 2.66552 9.59804 2.66602 8.99978C2.66602 8.50911 2.66602 7.66511 3.17668 6.57578C3.67668 5.50911 4.62735 4.28378 6.37402 2.88511C6.52123 2.76736 6.69872 2.69361 6.88604 2.67238C7.07335 2.65115 7.26285 2.68329 7.43268 2.76511ZM4.66602 8.99844V8.99978C4.66602 9.44181 4.84161 9.86573 5.15417 10.1783C5.46673 10.4908 5.89066 10.6664 6.33268 10.6664C6.77471 10.6664 7.19863 10.4908 7.51119 10.1783C7.82376 9.86573 7.99935 9.44181 7.99935 8.99978C7.99935 8.41444 7.75268 8.00911 7.27668 7.30111L7.26068 7.27711C6.95535 6.82378 6.59402 6.28644 6.33802 5.59711C5.61402 6.33311 5.21402 6.94378 4.98868 7.42378C4.66602 8.11178 4.66602 8.60111 4.66602 8.99711V8.99844ZM5.29802 13.8744C4.96735 14.4104 4.66602 15.5091 4.66602 17.6731C4.66602 19.8078 4.95668 22.3998 5.42202 24.4411C5.65668 25.4678 5.92335 26.3011 6.19402 26.8558C6.24335 26.9584 6.29002 27.0438 6.33268 27.1158C6.37535 27.0438 6.42202 26.9584 6.47135 26.8558C6.74202 26.3011 7.00868 25.4664 7.24335 24.4411C7.71002 22.4011 7.99935 19.8091 7.99935 17.6731C7.99935 15.5091 7.69802 14.4104 7.36735 13.8744C7.26762 13.694 7.11689 13.547 6.93402 13.4518C6.74466 13.3693 6.53903 13.331 6.33268 13.3398C6.06602 13.3398 5.87535 13.3811 5.73135 13.4518C5.54848 13.547 5.39774 13.694 5.29802 13.8744Z" fill="white"/>
<path d="M13.3326 19.8893C12.6262 19.7709 11.9391 19.5574 11.29 19.2547C11.329 18.4985 11.3401 17.7411 11.3233 16.984C11.9246 17.388 12.6033 17.6853 13.3326 17.8507V14C13.3326 13.4696 13.5434 12.9609 13.9184 12.5858C14.2935 12.2107 14.8022 12 15.3326 12H20.666C20.6659 10.8809 20.3529 9.78418 19.7623 8.83366C19.1716 7.88314 18.3269 7.11674 17.3236 6.62105C16.3203 6.12536 15.1984 5.92014 14.0846 6.02857C12.9708 6.13701 11.9095 6.55478 11.0206 7.23468C10.754 6.49735 10.374 5.93335 10.11 5.54135L10.0566 5.46135C11.2546 4.61687 12.6615 4.11773 14.1238 4.0184C15.5861 3.91906 17.0476 4.22337 18.3487 4.89808C19.6499 5.57279 20.7406 6.59199 21.502 7.84441C22.2633 9.09683 22.666 10.5343 22.666 12H27.3326C27.8631 12 28.3718 12.2107 28.7469 12.5858C29.1219 12.9609 29.3326 13.4696 29.3326 14V26C29.3326 26.5304 29.1219 27.0392 28.7469 27.4142C28.3718 27.7893 27.8631 28 27.3326 28H15.3326C14.8022 28 14.2935 27.7893 13.9184 27.4142C13.5434 27.0392 13.3326 26.5304 13.3326 26V19.8893ZM15.3326 19.9733V26H27.3326V14H22.4126C21.9972 15.6067 21.0928 17.0446 19.8244 18.1147C18.556 19.1849 16.9863 19.8344 15.3326 19.9733ZM20.3246 14H15.3326V17.964C16.4529 17.8384 17.5152 17.4 18.398 16.699C19.2808 15.998 19.9485 15.0627 20.3246 14Z" fill="white"/>
</svg>
