<svg width="351" height="595" viewBox="0 0 351 595" fill="none" xmlns="http://www.w3.org/2000/svg">
<g filter="url(#filter0_d_208_1883)">
<path d="M0 20C0 8.95431 8.95431 0 20 0H331C342.046 0 351 8.9543 351 20V571C351 582.046 342.046 591 331 591H20C8.95431 591 0 582.046 0 571V20Z" fill="white"/>
</g>
<path d="M104.395 44.1V45.96H100.695V58H98.4148V45.96H94.6948V44.1H104.395ZM116.684 46.98V58H114.404V56.7C114.044 57.1533 113.571 57.5133 112.984 57.78C112.411 58.0333 111.797 58.16 111.144 58.16C110.277 58.16 109.497 57.98 108.804 57.62C108.124 57.26 107.584 56.7267 107.184 56.02C106.797 55.3133 106.604 54.46 106.604 53.46V46.98H108.864V53.12C108.864 54.1067 109.111 54.8667 109.604 55.4C110.097 55.92 110.771 56.18 111.624 56.18C112.477 56.18 113.151 55.92 113.644 55.4C114.151 54.8667 114.404 54.1067 114.404 53.12V46.98H116.684ZM129.792 52.22C129.792 52.6333 129.765 53.0067 129.712 53.34H121.292C121.359 54.22 121.685 54.9267 122.272 55.46C122.859 55.9933 123.579 56.26 124.432 56.26C125.659 56.26 126.525 55.7467 127.032 54.72H129.492C129.159 55.7333 128.552 56.5667 127.672 57.22C126.805 57.86 125.725 58.18 124.432 58.18C123.379 58.18 122.432 57.9467 121.592 57.48C120.765 57 120.112 56.3333 119.632 55.48C119.165 54.6133 118.932 53.6133 118.932 52.48C118.932 51.3467 119.159 50.3533 119.612 49.5C120.079 48.6333 120.725 47.9667 121.552 47.5C122.392 47.0333 123.352 46.8 124.432 46.8C125.472 46.8 126.399 47.0267 127.212 47.48C128.025 47.9333 128.659 48.5733 129.112 49.4C129.565 50.2133 129.792 51.1533 129.792 52.22ZM127.412 51.5C127.399 50.66 127.099 49.9867 126.512 49.48C125.925 48.9733 125.199 48.72 124.332 48.72C123.545 48.72 122.872 48.9733 122.312 49.48C121.752 49.9733 121.419 50.6467 121.312 51.5H127.412ZM136.036 58.18C135.169 58.18 134.389 58.0267 133.696 57.72C133.016 57.4 132.476 56.9733 132.076 56.44C131.676 55.8933 131.463 55.2867 131.436 54.62H133.796C133.836 55.0867 134.056 55.48 134.456 55.8C134.869 56.1067 135.383 56.26 135.996 56.26C136.636 56.26 137.129 56.14 137.476 55.9C137.836 55.6467 138.016 55.3267 138.016 54.94C138.016 54.5267 137.816 54.22 137.416 54.02C137.029 53.82 136.409 53.6 135.556 53.36C134.729 53.1333 134.056 52.9133 133.536 52.7C133.016 52.4867 132.563 52.16 132.176 51.72C131.803 51.28 131.616 50.7 131.616 49.98C131.616 49.3933 131.789 48.86 132.136 48.38C132.483 47.8867 132.976 47.5 133.616 47.22C134.269 46.94 135.016 46.8 135.856 46.8C137.109 46.8 138.116 47.12 138.876 47.76C139.649 48.3867 140.063 49.2467 140.116 50.34H137.836C137.796 49.8467 137.596 49.4533 137.236 49.16C136.876 48.8667 136.389 48.72 135.776 48.72C135.176 48.72 134.716 48.8333 134.396 49.06C134.076 49.2867 133.916 49.5867 133.916 49.96C133.916 50.2533 134.023 50.5 134.236 50.7C134.449 50.9 134.709 51.06 135.016 51.18C135.323 51.2867 135.776 51.4267 136.376 51.6C137.176 51.8133 137.829 52.0333 138.336 52.26C138.856 52.4733 139.303 52.7933 139.676 53.22C140.049 53.6467 140.243 54.2133 140.256 54.92C140.256 55.5467 140.083 56.1067 139.736 56.6C139.389 57.0933 138.896 57.48 138.256 57.76C137.629 58.04 136.889 58.18 136.036 58.18ZM141.959 52.44C141.959 51.3333 142.186 50.3533 142.639 49.5C143.106 48.6467 143.733 47.9867 144.519 47.52C145.319 47.04 146.206 46.8 147.179 46.8C147.899 46.8 148.606 46.96 149.299 47.28C150.006 47.5867 150.566 48 150.979 48.52V43.2H153.279V58H150.979V56.34C150.606 56.8733 150.086 57.3133 149.419 57.66C148.766 58.0067 148.013 58.18 147.159 58.18C146.199 58.18 145.319 57.94 144.519 57.46C143.733 56.9667 143.106 56.2867 142.639 55.42C142.186 54.54 141.959 53.5467 141.959 52.44ZM150.979 52.48C150.979 51.72 150.819 51.06 150.499 50.5C150.193 49.94 149.786 49.5133 149.279 49.22C148.773 48.9267 148.226 48.78 147.639 48.78C147.053 48.78 146.506 48.9267 145.999 49.22C145.493 49.5 145.079 49.92 144.759 50.48C144.453 51.0267 144.299 51.68 144.299 52.44C144.299 53.2 144.453 53.8667 144.759 54.44C145.079 55.0133 145.493 55.4533 145.999 55.76C146.519 56.0533 147.066 56.2 147.639 56.2C148.226 56.2 148.773 56.0533 149.279 55.76C149.786 55.4667 150.193 55.04 150.499 54.48C150.819 53.9067 150.979 53.24 150.979 52.48ZM155.514 52.44C155.514 51.3333 155.741 50.3533 156.194 49.5C156.661 48.6467 157.288 47.9867 158.074 47.52C158.874 47.04 159.754 46.8 160.714 46.8C161.581 46.8 162.334 46.9733 162.974 47.32C163.628 47.6533 164.148 48.0733 164.534 48.58V46.98H166.834V58H164.534V56.36C164.148 56.88 163.621 57.3133 162.954 57.66C162.288 58.0067 161.528 58.18 160.674 58.18C159.728 58.18 158.861 57.94 158.074 57.46C157.288 56.9667 156.661 56.2867 156.194 55.42C155.741 54.54 155.514 53.5467 155.514 52.44ZM164.534 52.48C164.534 51.72 164.374 51.06 164.054 50.5C163.748 49.94 163.341 49.5133 162.834 49.22C162.328 48.9267 161.781 48.78 161.194 48.78C160.608 48.78 160.061 48.9267 159.554 49.22C159.048 49.5 158.634 49.92 158.314 50.48C158.008 51.0267 157.854 51.68 157.854 52.44C157.854 53.2 158.008 53.8667 158.314 54.44C158.634 55.0133 159.048 55.4533 159.554 55.76C160.074 56.0533 160.621 56.2 161.194 56.2C161.781 56.2 162.328 56.0533 162.834 55.76C163.341 55.4667 163.748 55.04 164.054 54.48C164.374 53.9067 164.534 53.24 164.534 52.48ZM179.749 46.98L172.989 63.18H170.629L172.869 57.82L168.529 46.98H171.069L174.169 55.38L177.389 46.98H179.749ZM183.969 55.26L181.549 60.78H180.069L181.489 55.26H183.969ZM202.577 58H200.297L193.437 47.62V58H191.157V44.08H193.437L200.297 54.44V44.08H202.577V58ZM210.351 58.18C209.311 58.18 208.371 57.9467 207.531 57.48C206.691 57 206.031 56.3333 205.551 55.48C205.071 54.6133 204.831 53.6133 204.831 52.48C204.831 51.36 205.078 50.3667 205.571 49.5C206.064 48.6333 206.738 47.9667 207.591 47.5C208.444 47.0333 209.398 46.8 210.451 46.8C211.504 46.8 212.458 47.0333 213.311 47.5C214.164 47.9667 214.838 48.6333 215.331 49.5C215.824 50.3667 216.071 51.36 216.071 52.48C216.071 53.6 215.818 54.5933 215.311 55.46C214.804 56.3267 214.111 57 213.231 57.48C212.364 57.9467 211.404 58.18 210.351 58.18ZM210.351 56.2C210.938 56.2 211.484 56.06 211.991 55.78C212.511 55.5 212.931 55.08 213.251 54.52C213.571 53.96 213.731 53.28 213.731 52.48C213.731 51.68 213.578 51.0067 213.271 50.46C212.964 49.9 212.558 49.48 212.051 49.2C211.544 48.92 210.998 48.78 210.411 48.78C209.824 48.78 209.278 48.92 208.771 49.2C208.278 49.48 207.884 49.9 207.591 50.46C207.298 51.0067 207.151 51.68 207.151 52.48C207.151 53.6667 207.451 54.5867 208.051 55.24C208.664 55.88 209.431 56.2 210.351 56.2ZM222.585 55.96L225.705 46.98H228.125L223.925 58H221.205L217.025 46.98H219.465L222.585 55.96ZM236.004 54.9C237.284 53.7933 238.29 52.8867 239.024 52.18C239.77 51.46 240.39 50.7133 240.884 49.94C241.377 49.1667 241.624 48.3933 241.624 47.62C241.624 46.82 241.43 46.1933 241.044 45.74C240.67 45.2867 240.077 45.06 239.264 45.06C238.477 45.06 237.864 45.3133 237.424 45.82C236.997 46.3133 236.77 46.98 236.744 47.82H234.544C234.584 46.3 235.037 45.14 235.904 44.34C236.784 43.5267 237.897 43.12 239.244 43.12C240.697 43.12 241.83 43.52 242.644 44.32C243.47 45.12 243.884 46.1867 243.884 47.52C243.884 48.48 243.637 49.4067 243.144 50.3C242.664 51.18 242.084 51.9733 241.404 52.68C240.737 53.3733 239.884 54.18 238.844 55.1L237.944 55.9H244.284V57.8H234.564V56.14L236.004 54.9ZM246.007 54.96V53.24L252.727 43.6H255.487V52.98H257.347V54.96H255.487V58H253.247V54.96H246.007ZM253.347 45.92L248.627 52.98H253.347V45.92Z" fill="#0F0E0E"/>
<path opacity="0.4" d="M38.626 128.426C38.7127 128.859 38.899 129.189 39.185 129.414C39.471 129.639 39.8567 129.752 40.342 129.752C40.9573 129.752 41.408 129.509 41.694 129.024C41.98 128.539 42.123 127.711 42.123 126.541C41.915 126.836 41.6203 127.065 41.239 127.23C40.8663 127.386 40.459 127.464 40.017 127.464C39.4537 127.464 38.9423 127.351 38.483 127.126C38.0237 126.892 37.6597 126.55 37.391 126.099C37.131 125.64 37.001 125.085 37.001 124.435C37.001 123.482 37.2783 122.723 37.833 122.16C38.3963 121.588 39.1677 121.302 40.147 121.302C41.3257 121.302 42.162 121.696 42.656 122.485C43.1587 123.265 43.41 124.465 43.41 126.086C43.41 127.204 43.3147 128.118 43.124 128.829C42.942 129.54 42.6213 130.077 42.162 130.441C41.7027 130.805 41.0657 130.987 40.251 130.987C39.3237 130.987 38.6087 130.744 38.106 130.259C37.6033 129.774 37.3217 129.163 37.261 128.426H38.626ZM40.277 126.216C40.797 126.216 41.2043 126.056 41.499 125.735C41.8023 125.406 41.954 124.972 41.954 124.435C41.954 123.837 41.7937 123.373 41.473 123.044C41.161 122.706 40.732 122.537 40.186 122.537C39.64 122.537 39.2067 122.71 38.886 123.057C38.574 123.395 38.418 123.841 38.418 124.396C38.418 124.925 38.5697 125.362 38.873 125.709C39.185 126.047 39.653 126.216 40.277 126.216ZM44.733 127.386C44.733 126.667 44.8803 126.03 45.175 125.475C45.4783 124.92 45.8856 124.491 46.397 124.188C46.917 123.876 47.489 123.72 48.113 123.72C48.6763 123.72 49.166 123.833 49.582 124.058C50.0066 124.275 50.3446 124.548 50.596 124.877V123.837H52.091V131H50.596V129.934C50.3446 130.272 50.0023 130.554 49.569 130.779C49.1356 131.004 48.6416 131.117 48.087 131.117C47.4716 131.117 46.9083 130.961 46.397 130.649C45.8856 130.328 45.4783 129.886 45.175 129.323C44.8803 128.751 44.733 128.105 44.733 127.386ZM50.596 127.412C50.596 126.918 50.492 126.489 50.284 126.125C50.0846 125.761 49.8203 125.484 49.491 125.293C49.1616 125.102 48.8063 125.007 48.425 125.007C48.0436 125.007 47.6883 125.102 47.359 125.293C47.0296 125.475 46.761 125.748 46.553 126.112C46.3536 126.467 46.254 126.892 46.254 127.386C46.254 127.88 46.3536 128.313 46.553 128.686C46.761 129.059 47.0296 129.345 47.359 129.544C47.697 129.735 48.0523 129.83 48.425 129.83C48.8063 129.83 49.1616 129.735 49.491 129.544C49.8203 129.353 50.0846 129.076 50.284 128.712C50.492 128.339 50.596 127.906 50.596 127.412ZM62.7085 123.72C63.2718 123.72 63.7745 123.837 64.2165 124.071C64.6672 124.305 65.0182 124.652 65.2695 125.111C65.5295 125.57 65.6595 126.125 65.6595 126.775V131H64.1905V126.996C64.1905 126.355 64.0302 125.865 63.7095 125.527C63.3888 125.18 62.9512 125.007 62.3965 125.007C61.8418 125.007 61.3998 125.18 61.0705 125.527C60.7498 125.865 60.5895 126.355 60.5895 126.996V131H59.1205V126.996C59.1205 126.355 58.9602 125.865 58.6395 125.527C58.3188 125.18 57.8812 125.007 57.3265 125.007C56.7718 125.007 56.3298 125.18 56.0005 125.527C55.6798 125.865 55.5195 126.355 55.5195 126.996V131H54.0375V123.837H55.5195V124.656C55.7622 124.361 56.0698 124.132 56.4425 123.967C56.8152 123.802 57.2138 123.72 57.6385 123.72C58.2105 123.72 58.7218 123.841 59.1725 124.084C59.6232 124.327 59.9698 124.678 60.2125 125.137C60.4292 124.704 60.7672 124.361 61.2265 124.11C61.6858 123.85 62.1798 123.72 62.7085 123.72Z" fill="#808080"/>
<path opacity="0.4" d="M36.585 174.875V173.523H39.289V183H37.794V174.875H36.585ZM41.3249 178.138C41.3249 176.639 41.5763 175.469 42.0789 174.628C42.5903 173.779 43.4656 173.354 44.7049 173.354C45.9443 173.354 46.8153 173.779 47.3179 174.628C47.8293 175.469 48.0849 176.639 48.0849 178.138C48.0849 179.655 47.8293 180.842 47.3179 181.7C46.8153 182.549 45.9443 182.974 44.7049 182.974C43.4656 182.974 42.5903 182.549 42.0789 181.7C41.5763 180.842 41.3249 179.655 41.3249 178.138ZM46.6289 178.138C46.6289 177.436 46.5813 176.842 46.4859 176.357C46.3993 175.872 46.2173 175.477 45.9399 175.174C45.6626 174.862 45.2509 174.706 44.7049 174.706C44.1589 174.706 43.7473 174.862 43.4699 175.174C43.1926 175.477 43.0063 175.872 42.9109 176.357C42.8243 176.842 42.7809 177.436 42.7809 178.138C42.7809 178.866 42.8243 179.477 42.9109 179.971C42.9976 180.465 43.1796 180.864 43.4569 181.167C43.7429 181.47 44.1589 181.622 44.7049 181.622C45.2509 181.622 45.6626 181.47 45.9399 181.167C46.2259 180.864 46.4123 180.465 46.4989 179.971C46.5856 179.477 46.6289 178.866 46.6289 178.138ZM49.354 179.386C49.354 178.667 49.5014 178.03 49.796 177.475C50.0994 176.92 50.5067 176.491 51.018 176.188C51.538 175.876 52.11 175.72 52.734 175.72C53.2974 175.72 53.787 175.833 54.203 176.058C54.6277 176.275 54.9657 176.548 55.217 176.877V175.837H56.712V183H55.217V181.934C54.9657 182.272 54.6234 182.554 54.19 182.779C53.7567 183.004 53.2627 183.117 52.708 183.117C52.0927 183.117 51.5294 182.961 51.018 182.649C50.5067 182.328 50.0994 181.886 49.796 181.323C49.5014 180.751 49.354 180.105 49.354 179.386ZM55.217 179.412C55.217 178.918 55.113 178.489 54.905 178.125C54.7057 177.761 54.4414 177.484 54.112 177.293C53.7827 177.102 53.4274 177.007 53.046 177.007C52.6647 177.007 52.3094 177.102 51.98 177.293C51.6507 177.475 51.382 177.748 51.174 178.112C50.9747 178.467 50.875 178.892 50.875 179.386C50.875 179.88 50.9747 180.313 51.174 180.686C51.382 181.059 51.6507 181.345 51.98 181.544C52.318 181.735 52.6734 181.83 53.046 181.83C53.4274 181.83 53.7827 181.735 54.112 181.544C54.4414 181.353 54.7057 181.076 54.905 180.712C55.113 180.339 55.217 179.906 55.217 179.412ZM67.3296 175.72C67.8929 175.72 68.3956 175.837 68.8376 176.071C69.2883 176.305 69.6393 176.652 69.8906 177.111C70.1506 177.57 70.2806 178.125 70.2806 178.775V183H68.8116V178.996C68.8116 178.355 68.6513 177.865 68.3306 177.527C68.0099 177.18 67.5723 177.007 67.0176 177.007C66.4629 177.007 66.0209 177.18 65.6916 177.527C65.3709 177.865 65.2106 178.355 65.2106 178.996V183H63.7416V178.996C63.7416 178.355 63.5813 177.865 63.2606 177.527C62.9399 177.18 62.5023 177.007 61.9476 177.007C61.3929 177.007 60.9509 177.18 60.6216 177.527C60.3009 177.865 60.1406 178.355 60.1406 178.996V183H58.6586V175.837H60.1406V176.656C60.3833 176.361 60.6909 176.132 61.0636 175.967C61.4363 175.802 61.8349 175.72 62.2596 175.72C62.8316 175.72 63.3429 175.841 63.7936 176.084C64.2443 176.327 64.5909 176.678 64.8336 177.137C65.0503 176.704 65.3883 176.361 65.8476 176.11C66.3069 175.85 66.8009 175.72 67.3296 175.72Z" fill="#808080"/>
<path opacity="0.4" d="M36.585 226.875V225.523H39.289V235H37.794V226.875H36.585ZM41.1299 226.875V225.523H43.8339V235H42.3389V226.875H41.1299ZM45.5708 231.386C45.5708 230.667 45.7182 230.03 46.0128 229.475C46.3162 228.92 46.7235 228.491 47.2348 228.188C47.7548 227.876 48.3268 227.72 48.9508 227.72C49.5142 227.72 50.0038 227.833 50.4198 228.058C50.8445 228.275 51.1825 228.548 51.4338 228.877V227.837H52.9288V235H51.4338V233.934C51.1825 234.272 50.8402 234.554 50.4068 234.779C49.9735 235.004 49.4795 235.117 48.9248 235.117C48.3095 235.117 47.7462 234.961 47.2348 234.649C46.7235 234.328 46.3162 233.886 46.0128 233.323C45.7182 232.751 45.5708 232.105 45.5708 231.386ZM51.4338 231.412C51.4338 230.918 51.3298 230.489 51.1218 230.125C50.9225 229.761 50.6582 229.484 50.3288 229.293C49.9995 229.102 49.6442 229.007 49.2628 229.007C48.8815 229.007 48.5262 229.102 48.1968 229.293C47.8675 229.475 47.5988 229.748 47.3908 230.112C47.1915 230.467 47.0918 230.892 47.0918 231.386C47.0918 231.88 47.1915 232.313 47.3908 232.686C47.5988 233.059 47.8675 233.345 48.1968 233.544C48.5348 233.735 48.8902 233.83 49.2628 233.83C49.6442 233.83 49.9995 233.735 50.3288 233.544C50.6582 233.353 50.9225 233.076 51.1218 232.712C51.3298 232.339 51.4338 231.906 51.4338 231.412ZM63.5464 227.72C64.1097 227.72 64.6124 227.837 65.0544 228.071C65.5051 228.305 65.8561 228.652 66.1074 229.111C66.3674 229.57 66.4974 230.125 66.4974 230.775V235H65.0284V230.996C65.0284 230.355 64.8681 229.865 64.5474 229.527C64.2267 229.18 63.7891 229.007 63.2344 229.007C62.6797 229.007 62.2377 229.18 61.9084 229.527C61.5877 229.865 61.4274 230.355 61.4274 230.996V235H59.9584V230.996C59.9584 230.355 59.7981 229.865 59.4774 229.527C59.1567 229.18 58.7191 229.007 58.1644 229.007C57.6097 229.007 57.1677 229.18 56.8384 229.527C56.5177 229.865 56.3574 230.355 56.3574 230.996V235H54.8754V227.837H56.3574V228.656C56.6001 228.361 56.9077 228.132 57.2804 227.967C57.6531 227.802 58.0517 227.72 58.4764 227.72C59.0484 227.72 59.5597 227.841 60.0104 228.084C60.4611 228.327 60.8077 228.678 61.0504 229.137C61.2671 228.704 61.6051 228.361 62.0644 228.11C62.5237 227.85 63.0177 227.72 63.5464 227.72Z" fill="#808080"/>
<path opacity="0.4" d="M36.585 278.875V277.523H39.289V287H37.794V278.875H36.585ZM42.1439 284.985C42.9759 284.266 43.6303 283.676 44.1069 283.217C44.5923 282.749 44.9953 282.264 45.3159 281.761C45.6366 281.258 45.7969 280.756 45.7969 280.253C45.7969 279.733 45.6713 279.326 45.4199 279.031C45.1773 278.736 44.7916 278.589 44.2629 278.589C43.7516 278.589 43.3529 278.754 43.0669 279.083C42.7896 279.404 42.6423 279.837 42.6249 280.383H41.1949C41.2209 279.395 41.5156 278.641 42.0789 278.121C42.6509 277.592 43.3746 277.328 44.2499 277.328C45.1946 277.328 45.9313 277.588 46.4599 278.108C46.9973 278.628 47.2659 279.321 47.2659 280.188C47.2659 280.812 47.1056 281.414 46.7849 281.995C46.4729 282.567 46.0959 283.083 45.6539 283.542C45.2206 283.993 44.6659 284.517 43.9899 285.115L43.4049 285.635H47.5259V286.87H41.2079V285.791L42.1439 284.985ZM48.5289 283.386C48.5289 282.667 48.6762 282.03 48.9709 281.475C49.2742 280.92 49.6815 280.491 50.1929 280.188C50.7129 279.876 51.2849 279.72 51.9089 279.72C52.4722 279.72 52.9619 279.833 53.3779 280.058C53.8025 280.275 54.1405 280.548 54.3919 280.877V279.837H55.8869V287H54.3919V285.934C54.1405 286.272 53.7982 286.554 53.3649 286.779C52.9315 287.004 52.4375 287.117 51.8829 287.117C51.2675 287.117 50.7042 286.961 50.1929 286.649C49.6815 286.328 49.2742 285.886 48.9709 285.323C48.6762 284.751 48.5289 284.105 48.5289 283.386ZM54.3919 283.412C54.3919 282.918 54.2879 282.489 54.0799 282.125C53.8805 281.761 53.6162 281.484 53.2869 281.293C52.9575 281.102 52.6022 281.007 52.2209 281.007C51.8395 281.007 51.4842 281.102 51.1549 281.293C50.8255 281.475 50.5569 281.748 50.3489 282.112C50.1495 282.467 50.0499 282.892 50.0499 283.386C50.0499 283.88 50.1495 284.313 50.3489 284.686C50.5569 285.059 50.8255 285.345 51.1549 285.544C51.4929 285.735 51.8482 285.83 52.2209 285.83C52.6022 285.83 52.9575 285.735 53.2869 285.544C53.6162 285.353 53.8805 285.076 54.0799 284.712C54.2879 284.339 54.3919 283.906 54.3919 283.412ZM66.5044 279.72C67.0677 279.72 67.5704 279.837 68.0124 280.071C68.4631 280.305 68.8141 280.652 69.0654 281.111C69.3254 281.57 69.4554 282.125 69.4554 282.775V287H67.9864V282.996C67.9864 282.355 67.8261 281.865 67.5054 281.527C67.1847 281.18 66.7471 281.007 66.1924 281.007C65.6377 281.007 65.1957 281.18 64.8664 281.527C64.5457 281.865 64.3854 282.355 64.3854 282.996V287H62.9164V282.996C62.9164 282.355 62.7561 281.865 62.4354 281.527C62.1147 281.18 61.6771 281.007 61.1224 281.007C60.5677 281.007 60.1257 281.18 59.7964 281.527C59.4757 281.865 59.3154 282.355 59.3154 282.996V287H57.8334V279.837H59.3154V280.656C59.5581 280.361 59.8657 280.132 60.2384 279.967C60.6111 279.802 61.0097 279.72 61.4344 279.72C62.0064 279.72 62.5177 279.841 62.9684 280.084C63.4191 280.327 63.7657 280.678 64.0084 281.137C64.2251 280.704 64.5631 280.361 65.0224 280.11C65.4817 279.85 65.9757 279.72 66.5044 279.72Z" fill="#808080"/>
<path opacity="0.4" d="M36.585 330.875V329.523H39.289V339H37.794V330.875H36.585ZM43.0019 332.89C43.2533 332.561 43.5956 332.283 44.0289 332.058C44.4623 331.833 44.9519 331.72 45.4979 331.72C46.1219 331.72 46.6896 331.876 47.2009 332.188C47.7209 332.491 48.1283 332.92 48.4229 333.475C48.7176 334.03 48.8649 334.667 48.8649 335.386C48.8649 336.105 48.7176 336.751 48.4229 337.323C48.1283 337.886 47.7209 338.328 47.2009 338.649C46.6896 338.961 46.1219 339.117 45.4979 339.117C44.9519 339.117 44.4666 339.009 44.0419 338.792C43.6173 338.567 43.2706 338.289 43.0019 337.96V342.406H41.5199V331.837H43.0019V332.89ZM47.3569 335.386C47.3569 334.892 47.2529 334.467 47.0449 334.112C46.8456 333.748 46.5769 333.475 46.2389 333.293C45.9096 333.102 45.5543 333.007 45.1729 333.007C44.8003 333.007 44.4449 333.102 44.1069 333.293C43.7776 333.484 43.5089 333.761 43.3009 334.125C43.1016 334.489 43.0019 334.918 43.0019 335.412C43.0019 335.906 43.1016 336.339 43.3009 336.712C43.5089 337.076 43.7776 337.353 44.1069 337.544C44.4449 337.735 44.8003 337.83 45.1729 337.83C45.5543 337.83 45.9096 337.735 46.2389 337.544C46.5769 337.345 46.8456 337.059 47.0449 336.686C47.2529 336.313 47.3569 335.88 47.3569 335.386ZM59.0015 331.72C59.5648 331.72 60.0675 331.837 60.5095 332.071C60.9601 332.305 61.3111 332.652 61.5625 333.111C61.8225 333.57 61.9525 334.125 61.9525 334.775V339H60.4835V334.996C60.4835 334.355 60.3231 333.865 60.0025 333.527C59.6818 333.18 59.2441 333.007 58.6895 333.007C58.1348 333.007 57.6928 333.18 57.3635 333.527C57.0428 333.865 56.8825 334.355 56.8825 334.996V339H55.4135V334.996C55.4135 334.355 55.2531 333.865 54.9325 333.527C54.6118 333.18 54.1741 333.007 53.6195 333.007C53.0648 333.007 52.6228 333.18 52.2935 333.527C51.9728 333.865 51.8125 334.355 51.8125 334.996V339H50.3305V331.837H51.8125V332.656C52.0551 332.361 52.3628 332.132 52.7355 331.967C53.1081 331.802 53.5068 331.72 53.9315 331.72C54.5035 331.72 55.0148 331.841 55.4655 332.084C55.9161 332.327 56.2628 332.678 56.5055 333.137C56.7221 332.704 57.0601 332.361 57.5195 332.11C57.9788 331.85 58.4728 331.72 59.0015 331.72Z" fill="#808080"/>
<path opacity="0.4" d="M37.599 388.985C38.431 388.266 39.0853 387.676 39.562 387.217C40.0473 386.749 40.4503 386.264 40.771 385.761C41.0917 385.258 41.252 384.756 41.252 384.253C41.252 383.733 41.1263 383.326 40.875 383.031C40.6323 382.736 40.2467 382.589 39.718 382.589C39.2067 382.589 38.808 382.754 38.522 383.083C38.2447 383.404 38.0973 383.837 38.08 384.383H36.65C36.676 383.395 36.9707 382.641 37.534 382.121C38.106 381.592 38.8297 381.328 39.705 381.328C40.6497 381.328 41.3863 381.588 41.915 382.108C42.4523 382.628 42.721 383.321 42.721 384.188C42.721 384.812 42.5607 385.414 42.24 385.995C41.928 386.567 41.551 387.083 41.109 387.542C40.6757 387.993 40.121 388.517 39.445 389.115L38.86 389.635H42.981V390.87H36.663V389.791L37.599 388.985ZM45.9599 384.89C46.2113 384.561 46.5536 384.283 46.9869 384.058C47.4203 383.833 47.9099 383.72 48.4559 383.72C49.0799 383.72 49.6476 383.876 50.1589 384.188C50.6789 384.491 51.0863 384.92 51.3809 385.475C51.6756 386.03 51.8229 386.667 51.8229 387.386C51.8229 388.105 51.6756 388.751 51.3809 389.323C51.0863 389.886 50.6789 390.328 50.1589 390.649C49.6476 390.961 49.0799 391.117 48.4559 391.117C47.9099 391.117 47.4246 391.009 46.9999 390.792C46.5753 390.567 46.2286 390.289 45.9599 389.96V394.406H44.4779V383.837H45.9599V384.89ZM50.3149 387.386C50.3149 386.892 50.2109 386.467 50.0029 386.112C49.8036 385.748 49.5349 385.475 49.1969 385.293C48.8676 385.102 48.5123 385.007 48.1309 385.007C47.7583 385.007 47.4029 385.102 47.0649 385.293C46.7356 385.484 46.4669 385.761 46.2589 386.125C46.0596 386.489 45.9599 386.918 45.9599 387.412C45.9599 387.906 46.0596 388.339 46.2589 388.712C46.4669 389.076 46.7356 389.353 47.0649 389.544C47.4029 389.735 47.7583 389.83 48.1309 389.83C48.5123 389.83 48.8676 389.735 49.1969 389.544C49.5349 389.345 49.8036 389.059 50.0029 388.686C50.2109 388.313 50.3149 387.88 50.3149 387.386ZM61.9595 383.72C62.5228 383.72 63.0255 383.837 63.4675 384.071C63.9181 384.305 64.2691 384.652 64.5205 385.111C64.7805 385.57 64.9105 386.125 64.9105 386.775V391H63.4415V386.996C63.4415 386.355 63.2811 385.865 62.9605 385.527C62.6398 385.18 62.2021 385.007 61.6475 385.007C61.0928 385.007 60.6508 385.18 60.3215 385.527C60.0008 385.865 59.8405 386.355 59.8405 386.996V391H58.3715V386.996C58.3715 386.355 58.2111 385.865 57.8905 385.527C57.5698 385.18 57.1321 385.007 56.5775 385.007C56.0228 385.007 55.5808 385.18 55.2515 385.527C54.9308 385.865 54.7705 386.355 54.7705 386.996V391H53.2885V383.837H54.7705V384.656C55.0131 384.361 55.3208 384.132 55.6935 383.967C56.0661 383.802 56.4648 383.72 56.8895 383.72C57.4615 383.72 57.9728 383.841 58.4235 384.084C58.8741 384.327 59.2208 384.678 59.4635 385.137C59.6801 384.704 60.0181 384.361 60.4775 384.11C60.9368 383.85 61.4308 383.72 61.9595 383.72Z" fill="#808080"/>
<path opacity="0.4" d="M36.754 435.863C36.806 435.057 37.1137 434.429 37.677 433.978C38.249 433.527 38.977 433.302 39.861 433.302C40.4677 433.302 40.992 433.41 41.434 433.627C41.876 433.844 42.2097 434.138 42.435 434.511C42.6603 434.884 42.773 435.304 42.773 435.772C42.773 436.309 42.63 436.769 42.344 437.15C42.058 437.531 41.7157 437.787 41.317 437.917V437.969C41.8283 438.125 42.227 438.411 42.513 438.827C42.799 439.234 42.942 439.759 42.942 440.4C42.942 440.911 42.825 441.366 42.591 441.765C42.357 442.164 42.0103 442.48 41.551 442.714C41.0917 442.939 40.5413 443.052 39.9 443.052C38.964 443.052 38.1927 442.814 37.586 442.337C36.988 441.852 36.6673 441.158 36.624 440.257H38.054C38.0887 440.716 38.2663 441.093 38.587 441.388C38.9077 441.674 39.341 441.817 39.887 441.817C40.4157 441.817 40.823 441.674 41.109 441.388C41.395 441.093 41.538 440.716 41.538 440.257C41.538 439.65 41.343 439.221 40.953 438.97C40.5717 438.71 39.9823 438.58 39.185 438.58H38.847V437.358H39.198C39.9 437.349 40.433 437.232 40.797 437.007C41.1697 436.782 41.356 436.426 41.356 435.941C41.356 435.525 41.2217 435.196 40.953 434.953C40.6843 434.702 40.303 434.576 39.809 434.576C39.3237 434.576 38.9467 434.702 38.678 434.953C38.4093 435.196 38.249 435.499 38.197 435.863H36.754ZM46.1758 436.89C46.4271 436.561 46.7694 436.283 47.2028 436.058C47.6361 435.833 48.1258 435.72 48.6718 435.72C49.2958 435.72 49.8634 435.876 50.3748 436.188C50.8948 436.491 51.3021 436.92 51.5968 437.475C51.8914 438.03 52.0388 438.667 52.0388 439.386C52.0388 440.105 51.8914 440.751 51.5968 441.323C51.3021 441.886 50.8948 442.328 50.3748 442.649C49.8634 442.961 49.2958 443.117 48.6718 443.117C48.1258 443.117 47.6404 443.009 47.2158 442.792C46.7911 442.567 46.4444 442.289 46.1758 441.96V446.406H44.6938V435.837H46.1758V436.89ZM50.5308 439.386C50.5308 438.892 50.4268 438.467 50.2188 438.112C50.0194 437.748 49.7508 437.475 49.4128 437.293C49.0834 437.102 48.7281 437.007 48.3468 437.007C47.9741 437.007 47.6188 437.102 47.2808 437.293C46.9514 437.484 46.6828 437.761 46.4748 438.125C46.2754 438.489 46.1758 438.918 46.1758 439.412C46.1758 439.906 46.2754 440.339 46.4748 440.712C46.6828 441.076 46.9514 441.353 47.2808 441.544C47.6188 441.735 47.9741 441.83 48.3468 441.83C48.7281 441.83 49.0834 441.735 49.4128 441.544C49.7508 441.345 50.0194 441.059 50.2188 440.686C50.4268 440.313 50.5308 439.88 50.5308 439.386ZM62.1753 435.72C62.7386 435.72 63.2413 435.837 63.6833 436.071C64.134 436.305 64.485 436.652 64.7363 437.111C64.9963 437.57 65.1263 438.125 65.1263 438.775V443H63.6573V438.996C63.6573 438.355 63.497 437.865 63.1763 437.527C62.8556 437.18 62.418 437.007 61.8633 437.007C61.3086 437.007 60.8666 437.18 60.5373 437.527C60.2166 437.865 60.0563 438.355 60.0563 438.996V443H58.5873V438.996C58.5873 438.355 58.427 437.865 58.1063 437.527C57.7856 437.18 57.348 437.007 56.7933 437.007C56.2386 437.007 55.7966 437.18 55.4673 437.527C55.1466 437.865 54.9863 438.355 54.9863 438.996V443H53.5043V435.837H54.9863V436.656C55.229 436.361 55.5366 436.132 55.9093 435.967C56.282 435.802 56.6806 435.72 57.1053 435.72C57.6773 435.72 58.1886 435.841 58.6393 436.084C59.09 436.327 59.4366 436.678 59.6793 437.137C59.896 436.704 60.234 436.361 60.6933 436.11C61.1526 435.85 61.6466 435.72 62.1753 435.72Z" fill="#808080"/>
<path opacity="0.4" d="M36.598 493.024V491.906L40.966 485.64H42.76V491.737H43.969V493.024H42.76V495H41.304V493.024H36.598ZM41.369 487.148L38.301 491.737H41.369V487.148ZM46.874 488.89C47.1253 488.561 47.4677 488.283 47.901 488.058C48.3343 487.833 48.824 487.72 49.37 487.72C49.994 487.72 50.5617 487.876 51.073 488.188C51.593 488.491 52.0003 488.92 52.295 489.475C52.5897 490.03 52.737 490.667 52.737 491.386C52.737 492.105 52.5897 492.751 52.295 493.323C52.0003 493.886 51.593 494.328 51.073 494.649C50.5617 494.961 49.994 495.117 49.37 495.117C48.824 495.117 48.3387 495.009 47.914 494.792C47.4893 494.567 47.1427 494.289 46.874 493.96V498.406H45.392V487.837H46.874V488.89ZM51.229 491.386C51.229 490.892 51.125 490.467 50.917 490.112C50.7177 489.748 50.449 489.475 50.111 489.293C49.7817 489.102 49.4263 489.007 49.045 489.007C48.6723 489.007 48.317 489.102 47.979 489.293C47.6497 489.484 47.381 489.761 47.173 490.125C46.9737 490.489 46.874 490.918 46.874 491.412C46.874 491.906 46.9737 492.339 47.173 492.712C47.381 493.076 47.6497 493.353 47.979 493.544C48.317 493.735 48.6723 493.83 49.045 493.83C49.4263 493.83 49.7817 493.735 50.111 493.544C50.449 493.345 50.7177 493.059 50.917 492.686C51.125 492.313 51.229 491.88 51.229 491.386ZM62.8735 487.72C63.4369 487.72 63.9395 487.837 64.3815 488.071C64.8322 488.305 65.1832 488.652 65.4345 489.111C65.6945 489.57 65.8245 490.125 65.8245 490.775V495H64.3555V490.996C64.3555 490.355 64.1952 489.865 63.8745 489.527C63.5539 489.18 63.1162 489.007 62.5615 489.007C62.0069 489.007 61.5649 489.18 61.2355 489.527C60.9149 489.865 60.7545 490.355 60.7545 490.996V495H59.2855V490.996C59.2855 490.355 59.1252 489.865 58.8045 489.527C58.4839 489.18 58.0462 489.007 57.4915 489.007C56.9369 489.007 56.4949 489.18 56.1655 489.527C55.8449 489.865 55.6845 490.355 55.6845 490.996V495H54.2025V487.837H55.6845V488.656C55.9272 488.361 56.2349 488.132 56.6075 487.967C56.9802 487.802 57.3789 487.72 57.8035 487.72C58.3755 487.72 58.8869 487.841 59.3375 488.084C59.7882 488.327 60.1349 488.678 60.3775 489.137C60.5942 488.704 60.9322 488.361 61.3915 488.11C61.8509 487.85 62.3449 487.72 62.8735 487.72Z" fill="#808080"/>
<path opacity="0.4" d="M42.89 538.797H38.535V541.384C38.717 541.141 38.9857 540.938 39.341 540.773C39.705 540.608 40.0907 540.526 40.498 540.526C41.226 540.526 41.8153 540.682 42.266 540.994C42.7253 541.306 43.0503 541.7 43.241 542.177C43.4403 542.654 43.54 543.156 43.54 543.685C43.54 544.326 43.4143 544.898 43.163 545.401C42.9203 545.895 42.552 546.285 42.058 546.571C41.5727 546.857 40.9747 547 40.264 547C39.3193 547 38.561 546.766 37.989 546.298C37.417 545.83 37.0747 545.21 36.962 544.439H38.405C38.5003 544.846 38.7127 545.171 39.042 545.414C39.3713 545.648 39.783 545.765 40.277 545.765C40.8923 545.765 41.3517 545.579 41.655 545.206C41.967 544.833 42.123 544.339 42.123 543.724C42.123 543.1 41.967 542.623 41.655 542.294C41.343 541.956 40.8837 541.787 40.277 541.787C39.8523 541.787 39.4927 541.895 39.198 542.112C38.912 542.32 38.704 542.606 38.574 542.97H37.17V537.497H42.89V538.797ZM46.7597 540.89C47.0111 540.561 47.3534 540.283 47.7867 540.058C48.2201 539.833 48.7097 539.72 49.2557 539.72C49.8797 539.72 50.4474 539.876 50.9587 540.188C51.4787 540.491 51.8861 540.92 52.1807 541.475C52.4754 542.03 52.6227 542.667 52.6227 543.386C52.6227 544.105 52.4754 544.751 52.1807 545.323C51.8861 545.886 51.4787 546.328 50.9587 546.649C50.4474 546.961 49.8797 547.117 49.2557 547.117C48.7097 547.117 48.2244 547.009 47.7997 546.792C47.3751 546.567 47.0284 546.289 46.7597 545.96V550.406H45.2777V539.837H46.7597V540.89ZM51.1147 543.386C51.1147 542.892 51.0107 542.467 50.8027 542.112C50.6034 541.748 50.3347 541.475 49.9967 541.293C49.6674 541.102 49.3121 541.007 48.9307 541.007C48.5581 541.007 48.2027 541.102 47.8647 541.293C47.5354 541.484 47.2667 541.761 47.0587 542.125C46.8594 542.489 46.7597 542.918 46.7597 543.412C46.7597 543.906 46.8594 544.339 47.0587 544.712C47.2667 545.076 47.5354 545.353 47.8647 545.544C48.2027 545.735 48.5581 545.83 48.9307 545.83C49.3121 545.83 49.6674 545.735 49.9967 545.544C50.3347 545.345 50.6034 545.059 50.8027 544.686C51.0107 544.313 51.1147 543.88 51.1147 543.386ZM62.7593 539.72C63.3226 539.72 63.8253 539.837 64.2673 540.071C64.7179 540.305 65.0689 540.652 65.3203 541.111C65.5803 541.57 65.7103 542.125 65.7103 542.775V547H64.2413V542.996C64.2413 542.355 64.0809 541.865 63.7603 541.527C63.4396 541.18 63.0019 541.007 62.4473 541.007C61.8926 541.007 61.4506 541.18 61.1213 541.527C60.8006 541.865 60.6403 542.355 60.6403 542.996V547H59.1713V542.996C59.1713 542.355 59.0109 541.865 58.6903 541.527C58.3696 541.18 57.9319 541.007 57.3773 541.007C56.8226 541.007 56.3806 541.18 56.0513 541.527C55.7306 541.865 55.5703 542.355 55.5703 542.996V547H54.0883V539.837H55.5703V540.656C55.8129 540.361 56.1206 540.132 56.4933 539.967C56.8659 539.802 57.2646 539.72 57.6893 539.72C58.2613 539.72 58.7726 539.841 59.2233 540.084C59.6739 540.327 60.0206 540.678 60.2633 541.137C60.4799 540.704 60.8179 540.361 61.2773 540.11C61.7366 539.85 62.2306 539.72 62.7593 539.72Z" fill="#808080"/>
<rect x="98" y="116" width="222" height="67" rx="8" fill="#EEE6FF"/>
<rect x="107" y="126" width="4" height="47" rx="2" fill="#4401D4"/>
<path d="M129.457 133.965V143H127.975V133.965H129.457ZM135.017 135.72C135.58 135.72 136.083 135.837 136.525 136.071C136.975 136.305 137.326 136.652 137.578 137.111C137.829 137.57 137.955 138.125 137.955 138.775V143H136.486V138.996C136.486 138.355 136.325 137.865 136.005 137.527C135.684 137.18 135.246 137.007 134.692 137.007C134.137 137.007 133.695 137.18 133.366 137.527C133.045 137.865 132.885 138.355 132.885 138.996V143H131.403V135.837H132.885V136.656C133.127 136.361 133.435 136.132 133.808 135.967C134.189 135.802 134.592 135.72 135.017 135.72ZM141.574 137.046V141.011C141.574 141.28 141.635 141.475 141.756 141.596C141.886 141.709 142.103 141.765 142.406 141.765H143.316V143H142.146C141.479 143 140.967 142.844 140.612 142.532C140.257 142.22 140.079 141.713 140.079 141.011V137.046H139.234V135.837H140.079V134.056H141.574V135.837H143.316V137.046H141.574ZM151.247 139.243C151.247 139.512 151.23 139.754 151.195 139.971H145.722C145.765 140.543 145.978 141.002 146.359 141.349C146.74 141.696 147.208 141.869 147.763 141.869C148.56 141.869 149.124 141.535 149.453 140.868H151.052C150.835 141.527 150.441 142.068 149.869 142.493C149.306 142.909 148.604 143.117 147.763 143.117C147.078 143.117 146.463 142.965 145.917 142.662C145.38 142.35 144.955 141.917 144.643 141.362C144.34 140.799 144.188 140.149 144.188 139.412C144.188 138.675 144.335 138.03 144.63 137.475C144.933 136.912 145.354 136.478 145.891 136.175C146.437 135.872 147.061 135.72 147.763 135.72C148.439 135.72 149.041 135.867 149.57 136.162C150.099 136.457 150.51 136.873 150.805 137.41C151.1 137.939 151.247 138.55 151.247 139.243ZM149.7 138.775C149.691 138.229 149.496 137.791 149.115 137.462C148.734 137.133 148.261 136.968 147.698 136.968C147.187 136.968 146.749 137.133 146.385 137.462C146.021 137.783 145.804 138.22 145.735 138.775H149.7ZM154.187 136.877C154.404 136.513 154.69 136.231 155.045 136.032C155.409 135.824 155.838 135.72 156.332 135.72V137.254H155.955C155.375 137.254 154.933 137.401 154.629 137.696C154.335 137.991 154.187 138.502 154.187 139.23V143H152.705V135.837H154.187V136.877ZM160.464 141.674L162.492 135.837H164.065L161.335 143H159.567L156.85 135.837H158.436L160.464 141.674ZM165.939 134.888C165.67 134.888 165.445 134.797 165.263 134.615C165.081 134.433 164.99 134.208 164.99 133.939C164.99 133.67 165.081 133.445 165.263 133.263C165.445 133.081 165.67 132.99 165.939 132.99C166.199 132.99 166.42 133.081 166.602 133.263C166.784 133.445 166.875 133.67 166.875 133.939C166.875 134.208 166.784 134.433 166.602 134.615C166.42 134.797 166.199 134.888 165.939 134.888ZM166.667 135.837V143H165.185V135.837H166.667ZM175.178 139.243C175.178 139.512 175.16 139.754 175.126 139.971H169.653C169.696 140.543 169.908 141.002 170.29 141.349C170.671 141.696 171.139 141.869 171.694 141.869C172.491 141.869 173.054 141.535 173.384 140.868H174.983C174.766 141.527 174.372 142.068 173.8 142.493C173.236 142.909 172.534 143.117 171.694 143.117C171.009 143.117 170.394 142.965 169.848 142.662C169.31 142.35 168.886 141.917 168.574 141.362C168.27 140.799 168.119 140.149 168.119 139.412C168.119 138.675 168.266 138.03 168.561 137.475C168.864 136.912 169.284 136.478 169.822 136.175C170.368 135.872 170.992 135.72 171.694 135.72C172.37 135.72 172.972 135.867 173.501 136.162C174.029 136.457 174.441 136.873 174.736 137.41C175.03 137.939 175.178 138.55 175.178 139.243ZM173.631 138.775C173.622 138.229 173.427 137.791 173.046 137.462C172.664 137.133 172.192 136.968 171.629 136.968C171.117 136.968 170.68 137.133 170.316 137.462C169.952 137.783 169.735 138.22 169.666 138.775H173.631ZM186.256 135.837L184.033 143H182.473L181.03 137.709L179.587 143H178.027L175.791 135.837H177.299L178.794 141.596L180.315 135.837H181.862L183.318 141.57L184.8 135.837H186.256Z" fill="#4401D4"/>
<path d="M139.912 154.88V166H138.088V158.384L134.696 166H133.432L130.024 158.384V166H128.2V154.88H130.168L134.072 163.6L137.96 154.88H139.912ZM141.701 161.552C141.701 160.667 141.883 159.883 142.245 159.2C142.619 158.517 143.12 157.989 143.749 157.616C144.389 157.232 145.093 157.04 145.861 157.04C146.555 157.04 147.157 157.179 147.669 157.456C148.192 157.723 148.608 158.059 148.917 158.464V157.184H150.757V166H148.917V164.688C148.608 165.104 148.187 165.451 147.653 165.728C147.12 166.005 146.512 166.144 145.829 166.144C145.072 166.144 144.379 165.952 143.749 165.568C143.12 165.173 142.619 164.629 142.245 163.936C141.883 163.232 141.701 162.437 141.701 161.552ZM148.917 161.584C148.917 160.976 148.789 160.448 148.533 160C148.288 159.552 147.963 159.211 147.557 158.976C147.152 158.741 146.715 158.624 146.245 158.624C145.776 158.624 145.339 158.741 144.933 158.976C144.528 159.2 144.197 159.536 143.941 159.984C143.696 160.421 143.573 160.944 143.573 161.552C143.573 162.16 143.696 162.693 143.941 163.152C144.197 163.611 144.528 163.963 144.933 164.208C145.349 164.443 145.787 164.56 146.245 164.56C146.715 164.56 147.152 164.443 147.557 164.208C147.963 163.973 148.288 163.632 148.533 163.184C148.789 162.725 148.917 162.192 148.917 161.584ZM154.977 158.464C155.244 158.016 155.596 157.669 156.033 157.424C156.481 157.168 157.009 157.04 157.617 157.04V158.928H157.153C156.438 158.928 155.894 159.109 155.521 159.472C155.158 159.835 154.977 160.464 154.977 161.36V166H153.153V157.184H154.977V158.464ZM160.222 156.016C159.891 156.016 159.614 155.904 159.39 155.68C159.166 155.456 159.054 155.179 159.054 154.848C159.054 154.517 159.166 154.24 159.39 154.016C159.614 153.792 159.891 153.68 160.222 153.68C160.542 153.68 160.814 153.792 161.038 154.016C161.262 154.24 161.374 154.517 161.374 154.848C161.374 155.179 161.262 155.456 161.038 155.68C160.814 155.904 160.542 156.016 160.222 156.016ZM161.118 157.184V166H159.294V157.184H161.118ZM162.905 161.552C162.905 160.667 163.086 159.883 163.449 159.2C163.822 158.517 164.323 157.989 164.953 157.616C165.593 157.232 166.297 157.04 167.065 157.04C167.758 157.04 168.361 157.179 168.873 157.456C169.395 157.723 169.811 158.059 170.121 158.464V157.184H171.961V166H170.121V164.688C169.811 165.104 169.39 165.451 168.857 165.728C168.323 166.005 167.715 166.144 167.033 166.144C166.275 166.144 165.582 165.952 164.953 165.568C164.323 165.173 163.822 164.629 163.449 163.936C163.086 163.232 162.905 162.437 162.905 161.552ZM170.121 161.584C170.121 160.976 169.993 160.448 169.737 160C169.491 159.552 169.166 159.211 168.761 158.976C168.355 158.741 167.918 158.624 167.449 158.624C166.979 158.624 166.542 158.741 166.137 158.976C165.731 159.2 165.401 159.536 165.145 159.984C164.899 160.421 164.777 160.944 164.777 161.552C164.777 162.16 164.899 162.693 165.145 163.152C165.401 163.611 165.731 163.963 166.137 164.208C166.553 164.443 166.99 164.56 167.449 164.56C167.918 164.56 168.355 164.443 168.761 164.208C169.166 163.973 169.491 163.632 169.737 163.184C169.993 162.725 170.121 162.192 170.121 161.584ZM186.561 158.08C186.273 157.525 185.873 157.109 185.361 156.832C184.849 156.544 184.257 156.4 183.585 156.4C182.849 156.4 182.193 156.565 181.617 156.896C181.041 157.227 180.587 157.696 180.257 158.304C179.937 158.912 179.777 159.616 179.777 160.416C179.777 161.216 179.937 161.925 180.257 162.544C180.587 163.152 181.041 163.621 181.617 163.952C182.193 164.283 182.849 164.448 183.585 164.448C184.577 164.448 185.382 164.171 186.001 163.616C186.619 163.061 186.998 162.309 187.137 161.36H182.961V159.904H189.089V161.328C188.971 162.192 188.662 162.987 188.161 163.712C187.67 164.437 187.025 165.019 186.225 165.456C185.435 165.883 184.555 166.096 183.585 166.096C182.539 166.096 181.585 165.856 180.721 165.376C179.857 164.885 179.169 164.208 178.657 163.344C178.155 162.48 177.905 161.504 177.905 160.416C177.905 159.328 178.155 158.352 178.657 157.488C179.169 156.624 179.857 155.952 180.721 155.472C181.595 154.981 182.55 154.736 183.585 154.736C184.769 154.736 185.819 155.029 186.737 155.616C187.665 156.192 188.337 157.013 188.753 158.08H186.561ZM198.968 161.376C198.968 161.707 198.946 162.005 198.904 162.272H192.168C192.221 162.976 192.482 163.541 192.952 163.968C193.421 164.395 193.997 164.608 194.68 164.608C195.661 164.608 196.354 164.197 196.76 163.376H198.727C198.461 164.187 197.976 164.853 197.272 165.376C196.578 165.888 195.714 166.144 194.68 166.144C193.837 166.144 193.08 165.957 192.408 165.584C191.746 165.2 191.224 164.667 190.84 163.984C190.466 163.291 190.28 162.491 190.28 161.584C190.28 160.677 190.461 159.883 190.824 159.2C191.197 158.507 191.714 157.973 192.376 157.6C193.048 157.227 193.816 157.04 194.68 157.04C195.512 157.04 196.253 157.221 196.904 157.584C197.554 157.947 198.061 158.459 198.424 159.12C198.786 159.771 198.968 160.523 198.968 161.376ZM197.064 160.8C197.053 160.128 196.813 159.589 196.344 159.184C195.874 158.779 195.293 158.576 194.6 158.576C193.97 158.576 193.432 158.779 192.984 159.184C192.536 159.579 192.269 160.117 192.184 160.8H197.064ZM204.587 166.144C203.755 166.144 203.003 165.957 202.331 165.584C201.659 165.2 201.131 164.667 200.747 163.984C200.363 163.291 200.171 162.491 200.171 161.584C200.171 160.688 200.368 159.893 200.763 159.2C201.157 158.507 201.696 157.973 202.379 157.6C203.061 157.227 203.824 157.04 204.667 157.04C205.509 157.04 206.272 157.227 206.955 157.6C207.637 157.973 208.176 158.507 208.571 159.2C208.965 159.893 209.163 160.688 209.163 161.584C209.163 162.48 208.96 163.275 208.555 163.968C208.149 164.661 207.595 165.2 206.891 165.584C206.197 165.957 205.429 166.144 204.587 166.144ZM204.587 164.56C205.056 164.56 205.493 164.448 205.899 164.224C206.315 164 206.651 163.664 206.907 163.216C207.163 162.768 207.291 162.224 207.291 161.584C207.291 160.944 207.168 160.405 206.923 159.968C206.677 159.52 206.352 159.184 205.947 158.96C205.541 158.736 205.104 158.624 204.635 158.624C204.165 158.624 203.728 158.736 203.323 158.96C202.928 159.184 202.613 159.52 202.379 159.968C202.144 160.405 202.027 160.944 202.027 161.584C202.027 162.533 202.267 163.269 202.747 163.792C203.237 164.304 203.851 164.56 204.587 164.56ZM212.79 158.464C213.056 158.016 213.408 157.669 213.846 157.424C214.294 157.168 214.822 157.04 215.43 157.04V158.928H214.966C214.251 158.928 213.707 159.109 213.334 159.472C212.971 159.835 212.79 160.464 212.79 161.36V166H210.966V157.184H212.79V158.464ZM220.658 157.04C221.341 157.04 221.944 157.179 222.466 157.456C223 157.723 223.416 158.059 223.714 158.464V157.184H225.554V166.144C225.554 166.955 225.384 167.675 225.042 168.304C224.701 168.944 224.205 169.445 223.554 169.808C222.914 170.171 222.146 170.352 221.25 170.352C220.056 170.352 219.064 170.069 218.274 169.504C217.485 168.949 217.037 168.192 216.93 167.232H218.738C218.877 167.691 219.17 168.059 219.618 168.336C220.077 168.624 220.621 168.768 221.25 168.768C221.986 168.768 222.578 168.544 223.026 168.096C223.485 167.648 223.714 166.997 223.714 166.144V164.672C223.405 165.088 222.984 165.44 222.45 165.728C221.928 166.005 221.33 166.144 220.658 166.144C219.89 166.144 219.186 165.952 218.546 165.568C217.917 165.173 217.416 164.629 217.042 163.936C216.68 163.232 216.498 162.437 216.498 161.552C216.498 160.667 216.68 159.883 217.042 159.2C217.416 158.517 217.917 157.989 218.546 157.616C219.186 157.232 219.89 157.04 220.658 157.04ZM223.714 161.584C223.714 160.976 223.586 160.448 223.33 160C223.085 159.552 222.76 159.211 222.354 158.976C221.949 158.741 221.512 158.624 221.042 158.624C220.573 158.624 220.136 158.741 219.73 158.976C219.325 159.2 218.994 159.536 218.738 159.984C218.493 160.421 218.37 160.944 218.37 161.552C218.37 162.16 218.493 162.693 218.738 163.152C218.994 163.611 219.325 163.963 219.73 164.208C220.146 164.443 220.584 164.56 221.042 164.56C221.512 164.56 221.949 164.443 222.354 164.208C222.76 163.973 223.085 163.632 223.33 163.184C223.586 162.725 223.714 162.192 223.714 161.584ZM228.878 156.016C228.547 156.016 228.27 155.904 228.046 155.68C227.822 155.456 227.71 155.179 227.71 154.848C227.71 154.517 227.822 154.24 228.046 154.016C228.27 153.792 228.547 153.68 228.878 153.68C229.198 153.68 229.47 153.792 229.694 154.016C229.918 154.24 230.03 154.517 230.03 154.848C230.03 155.179 229.918 155.456 229.694 155.68C229.47 155.904 229.198 156.016 228.878 156.016ZM229.774 157.184V166H227.95V157.184H229.774ZM231.561 161.552C231.561 160.667 231.742 159.883 232.105 159.2C232.478 158.517 232.979 157.989 233.609 157.616C234.249 157.232 234.953 157.04 235.721 157.04C236.414 157.04 237.017 157.179 237.529 157.456C238.051 157.723 238.467 158.059 238.777 158.464V157.184H240.617V166H238.777V164.688C238.467 165.104 238.046 165.451 237.513 165.728C236.979 166.005 236.371 166.144 235.689 166.144C234.931 166.144 234.238 165.952 233.609 165.568C232.979 165.173 232.478 164.629 232.105 163.936C231.742 163.232 231.561 162.437 231.561 161.552ZM238.777 161.584C238.777 160.976 238.649 160.448 238.393 160C238.147 159.552 237.822 159.211 237.417 158.976C237.011 158.741 236.574 158.624 236.105 158.624C235.635 158.624 235.198 158.741 234.793 158.976C234.387 159.2 234.057 159.536 233.801 159.984C233.555 160.421 233.433 160.944 233.433 161.552C233.433 162.16 233.555 162.693 233.801 163.152C234.057 163.611 234.387 163.963 234.793 164.208C235.209 164.443 235.646 164.56 236.105 164.56C236.574 164.56 237.011 164.443 237.417 164.208C237.822 163.973 238.147 163.632 238.393 163.184C238.649 162.725 238.777 162.192 238.777 161.584ZM247.461 157.04C248.154 157.04 248.773 157.184 249.317 157.472C249.871 157.76 250.303 158.187 250.613 158.752C250.922 159.317 251.077 160 251.077 160.8V166H249.269V161.072C249.269 160.283 249.071 159.68 248.677 159.264C248.282 158.837 247.743 158.624 247.061 158.624C246.378 158.624 245.834 158.837 245.429 159.264C245.034 159.68 244.837 160.283 244.837 161.072V166H243.013V157.184H244.837V158.192C245.135 157.829 245.514 157.547 245.973 157.344C246.442 157.141 246.938 157.04 247.461 157.04ZM252.795 161.552C252.795 160.667 252.976 159.883 253.339 159.2C253.712 158.517 254.214 157.989 254.843 157.616C255.483 157.232 256.187 157.04 256.955 157.04C257.648 157.04 258.251 157.179 258.763 157.456C259.286 157.723 259.702 158.059 260.011 158.464V157.184H261.851V166H260.011V164.688C259.702 165.104 259.28 165.451 258.747 165.728C258.214 166.005 257.606 166.144 256.923 166.144C256.166 166.144 255.472 165.952 254.843 165.568C254.214 165.173 253.712 164.629 253.339 163.936C252.976 163.232 252.795 162.437 252.795 161.552ZM260.011 161.584C260.011 160.976 259.883 160.448 259.627 160C259.382 159.552 259.056 159.211 258.651 158.976C258.246 158.741 257.808 158.624 257.339 158.624C256.87 158.624 256.432 158.741 256.027 158.976C255.622 159.2 255.291 159.536 255.035 159.984C254.79 160.421 254.667 160.944 254.667 161.552C254.667 162.16 254.79 162.693 255.035 163.152C255.291 163.611 255.622 163.963 256.027 164.208C256.443 164.443 256.88 164.56 257.339 164.56C257.808 164.56 258.246 164.443 258.651 164.208C259.056 163.973 259.382 163.632 259.627 163.184C259.883 162.725 260.011 162.192 260.011 161.584Z" fill="#0F0E0E"/>
<rect x="98" y="272" width="222" height="67" rx="8" fill="#FFEFE6"/>
<rect x="107" y="282" width="4" height="47" rx="2" fill="#FE8032"/>
<path d="M129.457 289.965V299H127.975V289.965H129.457ZM135.017 291.72C135.58 291.72 136.083 291.837 136.525 292.071C136.975 292.305 137.326 292.652 137.578 293.111C137.829 293.57 137.955 294.125 137.955 294.775V299H136.486V294.996C136.486 294.355 136.325 293.865 136.005 293.527C135.684 293.18 135.246 293.007 134.692 293.007C134.137 293.007 133.695 293.18 133.366 293.527C133.045 293.865 132.885 294.355 132.885 294.996V299H131.403V291.837H132.885V292.656C133.127 292.361 133.435 292.132 133.808 291.967C134.189 291.802 134.592 291.72 135.017 291.72ZM141.574 293.046V297.011C141.574 297.28 141.635 297.475 141.756 297.596C141.886 297.709 142.103 297.765 142.406 297.765H143.316V299H142.146C141.479 299 140.967 298.844 140.612 298.532C140.257 298.22 140.079 297.713 140.079 297.011V293.046H139.234V291.837H140.079V290.056H141.574V291.837H143.316V293.046H141.574ZM151.247 295.243C151.247 295.512 151.23 295.754 151.195 295.971H145.722C145.765 296.543 145.978 297.002 146.359 297.349C146.74 297.696 147.208 297.869 147.763 297.869C148.56 297.869 149.124 297.535 149.453 296.868H151.052C150.835 297.527 150.441 298.068 149.869 298.493C149.306 298.909 148.604 299.117 147.763 299.117C147.078 299.117 146.463 298.965 145.917 298.662C145.38 298.35 144.955 297.917 144.643 297.362C144.34 296.799 144.188 296.149 144.188 295.412C144.188 294.675 144.335 294.03 144.63 293.475C144.933 292.912 145.354 292.478 145.891 292.175C146.437 291.872 147.061 291.72 147.763 291.72C148.439 291.72 149.041 291.867 149.57 292.162C150.099 292.457 150.51 292.873 150.805 293.41C151.1 293.939 151.247 294.55 151.247 295.243ZM149.7 294.775C149.691 294.229 149.496 293.791 149.115 293.462C148.734 293.133 148.261 292.968 147.698 292.968C147.187 292.968 146.749 293.133 146.385 293.462C146.021 293.783 145.804 294.22 145.735 294.775H149.7ZM154.187 292.877C154.404 292.513 154.69 292.231 155.045 292.032C155.409 291.824 155.838 291.72 156.332 291.72V293.254H155.955C155.375 293.254 154.933 293.401 154.629 293.696C154.335 293.991 154.187 294.502 154.187 295.23V299H152.705V291.837H154.187V292.877ZM160.464 297.674L162.492 291.837H164.065L161.335 299H159.567L156.85 291.837H158.436L160.464 297.674ZM165.939 290.888C165.67 290.888 165.445 290.797 165.263 290.615C165.081 290.433 164.99 290.208 164.99 289.939C164.99 289.67 165.081 289.445 165.263 289.263C165.445 289.081 165.67 288.99 165.939 288.99C166.199 288.99 166.42 289.081 166.602 289.263C166.784 289.445 166.875 289.67 166.875 289.939C166.875 290.208 166.784 290.433 166.602 290.615C166.42 290.797 166.199 290.888 165.939 290.888ZM166.667 291.837V299H165.185V291.837H166.667ZM175.178 295.243C175.178 295.512 175.16 295.754 175.126 295.971H169.653C169.696 296.543 169.908 297.002 170.29 297.349C170.671 297.696 171.139 297.869 171.694 297.869C172.491 297.869 173.054 297.535 173.384 296.868H174.983C174.766 297.527 174.372 298.068 173.8 298.493C173.236 298.909 172.534 299.117 171.694 299.117C171.009 299.117 170.394 298.965 169.848 298.662C169.31 298.35 168.886 297.917 168.574 297.362C168.27 296.799 168.119 296.149 168.119 295.412C168.119 294.675 168.266 294.03 168.561 293.475C168.864 292.912 169.284 292.478 169.822 292.175C170.368 291.872 170.992 291.72 171.694 291.72C172.37 291.72 172.972 291.867 173.501 292.162C174.029 292.457 174.441 292.873 174.736 293.41C175.03 293.939 175.178 294.55 175.178 295.243ZM173.631 294.775C173.622 294.229 173.427 293.791 173.046 293.462C172.664 293.133 172.192 292.968 171.629 292.968C171.117 292.968 170.68 293.133 170.316 293.462C169.952 293.783 169.735 294.22 169.666 294.775H173.631ZM186.256 291.837L184.033 299H182.473L181.03 293.709L179.587 299H178.027L175.791 291.837H177.299L178.794 297.596L180.315 291.837H181.862L183.318 297.57L184.8 291.837H186.256Z" fill="#FE8032"/>
<path d="M136.248 314.08C135.96 313.525 135.56 313.109 135.048 312.832C134.536 312.544 133.944 312.4 133.272 312.4C132.536 312.4 131.88 312.565 131.304 312.896C130.728 313.227 130.275 313.696 129.944 314.304C129.624 314.912 129.464 315.616 129.464 316.416C129.464 317.216 129.624 317.925 129.944 318.544C130.275 319.152 130.728 319.621 131.304 319.952C131.88 320.283 132.536 320.448 133.272 320.448C134.264 320.448 135.069 320.171 135.688 319.616C136.307 319.061 136.685 318.309 136.824 317.36H132.648V315.904H138.776V317.328C138.659 318.192 138.349 318.987 137.848 319.712C137.357 320.437 136.712 321.019 135.912 321.456C135.123 321.883 134.243 322.096 133.272 322.096C132.227 322.096 131.272 321.856 130.408 321.376C129.544 320.885 128.856 320.208 128.344 319.344C127.843 318.48 127.592 317.504 127.592 316.416C127.592 315.328 127.843 314.352 128.344 313.488C128.856 312.624 129.544 311.952 130.408 311.472C131.283 310.981 132.237 310.736 133.272 310.736C134.456 310.736 135.507 311.029 136.424 311.616C137.352 312.192 138.024 313.013 138.44 314.08H136.248ZM148.655 317.376C148.655 317.707 148.634 318.005 148.591 318.272H141.855C141.908 318.976 142.17 319.541 142.639 319.968C143.108 320.395 143.684 320.608 144.367 320.608C145.348 320.608 146.042 320.197 146.447 319.376H148.415C148.148 320.187 147.663 320.853 146.959 321.376C146.266 321.888 145.402 322.144 144.367 322.144C143.524 322.144 142.767 321.957 142.095 321.584C141.434 321.2 140.911 320.667 140.527 319.984C140.154 319.291 139.967 318.491 139.967 317.584C139.967 316.677 140.148 315.883 140.511 315.2C140.884 314.507 141.402 313.973 142.063 313.6C142.735 313.227 143.503 313.04 144.367 313.04C145.199 313.04 145.94 313.221 146.591 313.584C147.242 313.947 147.748 314.459 148.111 315.12C148.474 315.771 148.655 316.523 148.655 317.376ZM146.751 316.8C146.74 316.128 146.5 315.589 146.031 315.184C145.562 314.779 144.98 314.576 144.287 314.576C143.658 314.576 143.119 314.779 142.671 315.184C142.223 315.579 141.956 316.117 141.871 316.8H146.751ZM154.274 322.144C153.442 322.144 152.69 321.957 152.018 321.584C151.346 321.2 150.818 320.667 150.434 319.984C150.05 319.291 149.858 318.491 149.858 317.584C149.858 316.688 150.055 315.893 150.45 315.2C150.845 314.507 151.383 313.973 152.066 313.6C152.749 313.227 153.511 313.04 154.354 313.04C155.197 313.04 155.959 313.227 156.642 313.6C157.325 313.973 157.863 314.507 158.258 315.2C158.653 315.893 158.85 316.688 158.85 317.584C158.85 318.48 158.647 319.275 158.242 319.968C157.837 320.661 157.282 321.2 156.578 321.584C155.885 321.957 155.117 322.144 154.274 322.144ZM154.274 320.56C154.743 320.56 155.181 320.448 155.586 320.224C156.002 320 156.338 319.664 156.594 319.216C156.85 318.768 156.978 318.224 156.978 317.584C156.978 316.944 156.855 316.405 156.61 315.968C156.365 315.52 156.039 315.184 155.634 314.96C155.229 314.736 154.791 314.624 154.322 314.624C153.853 314.624 153.415 314.736 153.01 314.96C152.615 315.184 152.301 315.52 152.066 315.968C151.831 316.405 151.714 316.944 151.714 317.584C151.714 318.533 151.954 319.269 152.434 319.792C152.925 320.304 153.538 320.56 154.274 320.56ZM162.477 314.464C162.744 314.016 163.096 313.669 163.533 313.424C163.981 313.168 164.509 313.04 165.117 313.04V314.928H164.653C163.938 314.928 163.394 315.109 163.021 315.472C162.658 315.835 162.477 316.464 162.477 317.36V322H160.653V313.184H162.477V314.464ZM170.346 313.04C171.028 313.04 171.631 313.179 172.154 313.456C172.687 313.723 173.103 314.059 173.402 314.464V313.184H175.242V322.144C175.242 322.955 175.071 323.675 174.73 324.304C174.388 324.944 173.892 325.445 173.242 325.808C172.602 326.171 171.834 326.352 170.938 326.352C169.743 326.352 168.751 326.069 167.962 325.504C167.172 324.949 166.724 324.192 166.618 323.232H168.426C168.564 323.691 168.858 324.059 169.306 324.336C169.764 324.624 170.308 324.768 170.938 324.768C171.674 324.768 172.266 324.544 172.714 324.096C173.172 323.648 173.402 322.997 173.402 322.144V320.672C173.092 321.088 172.671 321.44 172.138 321.728C171.615 322.005 171.018 322.144 170.346 322.144C169.578 322.144 168.874 321.952 168.234 321.568C167.604 321.173 167.103 320.629 166.73 319.936C166.367 319.232 166.186 318.437 166.186 317.552C166.186 316.667 166.367 315.883 166.73 315.2C167.103 314.517 167.604 313.989 168.234 313.616C168.874 313.232 169.578 313.04 170.346 313.04ZM173.402 317.584C173.402 316.976 173.274 316.448 173.018 316C172.772 315.552 172.447 315.211 172.042 314.976C171.636 314.741 171.199 314.624 170.73 314.624C170.26 314.624 169.823 314.741 169.418 314.976C169.012 315.2 168.682 315.536 168.426 315.984C168.18 316.421 168.058 316.944 168.058 317.552C168.058 318.16 168.18 318.693 168.426 319.152C168.682 319.611 169.012 319.963 169.418 320.208C169.834 320.443 170.271 320.56 170.73 320.56C171.199 320.56 171.636 320.443 172.042 320.208C172.447 319.973 172.772 319.632 173.018 319.184C173.274 318.725 173.402 318.192 173.402 317.584ZM185.718 317.376C185.718 317.707 185.696 318.005 185.654 318.272H178.918C178.971 318.976 179.232 319.541 179.702 319.968C180.171 320.395 180.747 320.608 181.43 320.608C182.411 320.608 183.104 320.197 183.51 319.376H185.477C185.211 320.187 184.726 320.853 184.022 321.376C183.328 321.888 182.464 322.144 181.43 322.144C180.587 322.144 179.83 321.957 179.158 321.584C178.496 321.2 177.974 320.667 177.59 319.984C177.216 319.291 177.03 318.491 177.03 317.584C177.03 316.677 177.211 315.883 177.574 315.2C177.947 314.507 178.464 313.973 179.126 313.6C179.798 313.227 180.566 313.04 181.43 313.04C182.262 313.04 183.003 313.221 183.654 313.584C184.304 313.947 184.811 314.459 185.174 315.12C185.536 315.771 185.718 316.523 185.718 317.376ZM183.814 316.8C183.803 316.128 183.563 315.589 183.094 315.184C182.624 314.779 182.043 314.576 181.35 314.576C180.72 314.576 180.182 314.779 179.734 315.184C179.286 315.579 179.019 316.117 178.934 316.8H183.814ZM203.381 310.88V322H201.557V314.384L198.165 322H196.901L193.493 314.384V322H191.669V310.88H193.637L197.541 319.6L201.429 310.88H203.381ZM206.706 312.016C206.375 312.016 206.098 311.904 205.874 311.68C205.65 311.456 205.538 311.179 205.538 310.848C205.538 310.517 205.65 310.24 205.874 310.016C206.098 309.792 206.375 309.68 206.706 309.68C207.026 309.68 207.298 309.792 207.522 310.016C207.746 310.24 207.858 310.517 207.858 310.848C207.858 311.179 207.746 311.456 207.522 311.68C207.298 311.904 207.026 312.016 206.706 312.016ZM207.602 313.184V322H205.778V313.184H207.602ZM209.389 317.584C209.389 316.677 209.57 315.883 209.933 315.2C210.306 314.507 210.818 313.973 211.469 313.6C212.12 313.227 212.866 313.04 213.709 313.04C214.776 313.04 215.656 313.296 216.349 313.808C217.053 314.309 217.528 315.029 217.773 315.968H215.805C215.645 315.531 215.389 315.189 215.037 314.944C214.685 314.699 214.242 314.576 213.709 314.576C212.962 314.576 212.365 314.843 211.917 315.376C211.48 315.899 211.261 316.635 211.261 317.584C211.261 318.533 211.48 319.275 211.917 319.808C212.365 320.341 212.962 320.608 213.709 320.608C214.765 320.608 215.464 320.144 215.805 319.216H217.773C217.517 320.112 217.037 320.827 216.333 321.36C215.629 321.883 214.754 322.144 213.709 322.144C212.866 322.144 212.12 321.957 211.469 321.584C210.818 321.2 210.306 320.667 209.933 319.984C209.57 319.291 209.389 318.491 209.389 317.584ZM224.151 313.04C224.823 313.04 225.42 313.184 225.943 313.472C226.476 313.76 226.892 314.187 227.191 314.752C227.5 315.317 227.655 316 227.655 316.8V322H225.847V317.072C225.847 316.283 225.649 315.68 225.255 315.264C224.86 314.837 224.321 314.624 223.639 314.624C222.956 314.624 222.412 314.837 222.007 315.264C221.612 315.68 221.415 316.283 221.415 317.072V322H219.591V310.16H221.415V314.208C221.724 313.835 222.113 313.547 222.583 313.344C223.063 313.141 223.585 313.04 224.151 313.04ZM229.373 317.552C229.373 316.667 229.555 315.883 229.917 315.2C230.291 314.517 230.792 313.989 231.421 313.616C232.061 313.232 232.765 313.04 233.533 313.04C234.227 313.04 234.829 313.179 235.341 313.456C235.864 313.723 236.28 314.059 236.589 314.464V313.184H238.429V322H236.589V320.688C236.28 321.104 235.859 321.451 235.325 321.728C234.792 322.005 234.184 322.144 233.501 322.144C232.744 322.144 232.051 321.952 231.421 321.568C230.792 321.173 230.291 320.629 229.917 319.936C229.555 319.232 229.373 318.437 229.373 317.552ZM236.589 317.584C236.589 316.976 236.461 316.448 236.205 316C235.96 315.552 235.635 315.211 235.229 314.976C234.824 314.741 234.387 314.624 233.917 314.624C233.448 314.624 233.011 314.741 232.605 314.976C232.2 315.2 231.869 315.536 231.613 315.984C231.368 316.421 231.245 316.944 231.245 317.552C231.245 318.16 231.368 318.693 231.613 319.152C231.869 319.611 232.2 319.963 232.605 320.208C233.021 320.443 233.459 320.56 233.917 320.56C234.387 320.56 234.824 320.443 235.229 320.208C235.635 319.973 235.96 319.632 236.205 319.184C236.461 318.725 236.589 318.192 236.589 317.584ZM248.905 317.376C248.905 317.707 248.884 318.005 248.841 318.272H242.105C242.158 318.976 242.42 319.541 242.889 319.968C243.358 320.395 243.934 320.608 244.617 320.608C245.598 320.608 246.292 320.197 246.697 319.376H248.665C248.398 320.187 247.913 320.853 247.209 321.376C246.516 321.888 245.652 322.144 244.617 322.144C243.774 322.144 243.017 321.957 242.345 321.584C241.684 321.2 241.161 320.667 240.777 319.984C240.404 319.291 240.217 318.491 240.217 317.584C240.217 316.677 240.398 315.883 240.761 315.2C241.134 314.507 241.652 313.973 242.313 313.6C242.985 313.227 243.753 313.04 244.617 313.04C245.449 313.04 246.19 313.221 246.841 313.584C247.492 313.947 247.998 314.459 248.361 315.12C248.724 315.771 248.905 316.523 248.905 317.376ZM247.001 316.8C246.99 316.128 246.75 315.589 246.281 315.184C245.812 314.779 245.23 314.576 244.537 314.576C243.908 314.576 243.369 314.779 242.921 315.184C242.473 315.579 242.206 316.117 242.121 316.8H247.001ZM252.524 310.16V322H250.7V310.16H252.524Z" fill="#0F0E0E"/>
<path d="M44 43L36.0053 50.968L44 58.9361" stroke="#40189D" stroke-width="2"/>
<path d="M312 58.9258L319.995 50.9577L312 42.9897" stroke="#40189D" stroke-width="2"/>
<defs>
<filter id="filter0_d_208_1883" x="0" y="0" width="351" height="595" filterUnits="userSpaceOnUse" color-interpolation-filters="sRGB">
<feFlood flood-opacity="0" result="BackgroundImageFix"/>
<feColorMatrix in="SourceAlpha" type="matrix" values="0 0 0 0 0 0 0 0 0 0 0 0 0 0 0 0 0 0 127 0" result="hardAlpha"/>
<feOffset dy="4"/>
<feColorMatrix type="matrix" values="0 0 0 0 0.243137 0 0 0 0 0.286275 0 0 0 0 0.329412 0 0 0 0.04 0"/>
<feBlend mode="normal" in2="BackgroundImageFix" result="effect1_dropShadow_208_1883"/>
<feBlend mode="normal" in="SourceGraphic" in2="effect1_dropShadow_208_1883" result="shape"/>
</filter>
</defs>
</svg>
